<svg xmlns="http://www.w3.org/2000/svg" xmlns:xlink="http://www.w3.org/1999/xlink" viewBox="0 0 100 100" fill="#110000">
  <path d="M18,88c-0.404,0-0.769-0.243-0.924-0.617s-0.069-0.804,0.217-1.09c3.63-3.63,3.706-9.199,3.707-15.66C13.257,64.594,9,56.573,9,48c0-17.645,18.393-32,41-32s41,14.355,41,32S72.607,80,50,80c-3.879,0-7.711-0.421-11.4-1.252C32.585,86.781,23.156,88,18,88z M50,18c-21.505,0-39,13.458-39,30c0,8.078,4.122,15.658,11.605,21.345C22.854,69.533,23,69.828,23,70.141v0.077c0,5.901,0,11.519-2.823,15.706c5.067-0.356,12.451-2.135,17.184-8.874c0.236-0.335,0.652-0.492,1.051-0.398C42.149,77.546,46.048,78,50,78c21.505,0,39-13.458,39-30S71.505,18,50,18z" fill="#110000" />
  <path d="M20.298 63c-.139 0-.277-.058-.375-.17C16.048 58.423 14 53.295 14 48c0-14.888 16.149-27 36-27 9.38 0 18.264 2.697 25.016 7.596.224.162.273.475.111.698s-.477.272-.698.11C67.846 24.63 59.17 22 50 22c-19.299 0-35 11.663-35 26 0 5.048 1.962 9.947 5.674 14.17.182.207.162.523-.045.706C20.534 62.959 20.416 63 20.298 63zM50 75c-1.184 0-2.374-.044-3.537-.129-.275-.021-.482-.261-.462-.536s.257-.492.535-.462C47.675 73.957 48.84 74 50 74c19.299 0 35-11.663 35-26 0-4.445-1.546-8.836-4.471-12.698-.167-.22-.124-.533.097-.7s.534-.124.7.097C84.384 38.735 86 43.335 86 48 86 62.888 69.851 75 50 75zM79.702 34c-.139 0-.277-.058-.375-.17-.292-.333-.595-.66-.907-.981-.193-.198-.188-.515.01-.707.198-.193.516-.188.707.01.324.333.638.674.941 1.019.182.207.162.523-.045.706C79.937 33.959 79.819 34 79.702 34zM77.212 31.5c-.119 0-.238-.042-.333-.127-.229-.204-.462-.406-.7-.604-.212-.178-.24-.493-.062-.704.176-.213.492-.24.704-.063.246.206.487.414.724.626.206.184.224.5.04.706C77.486 31.443 77.349 31.5 77.212 31.5z" fill="#110000" />
  <path fill="none" stroke="#110000" stroke-linecap="round" d="M28.5 35.5L52.5 35.5M57.5 35.5L68.5 35.5M22.5 43.5L38.5 43.5M43.5 43.5L77.5 43.5M22.5 51.5L77.5 51.5M48.5 59.5L28.5 59.5M53.5 59.5L68.5 59.5" />
</svg>