<svg xmlns="http://www.w3.org/2000/svg" xmlns:xlink="http://www.w3.org/1999/xlink" viewBox="0 0 50 50" fill="#110000">
  <path fill="none" stroke="#110000" stroke-width="2" d="M47,33v12c0,1.105-0.895,2-2,2H5c-1.105,0-2-0.895-2-2V33" />
  <path fill="none" stroke="#110000" stroke-linecap="round" stroke-linejoin="round" stroke-width="2" d="M25 16L25 40M33 32L25 40 17 32" />
  <path d="M25 3A1 1 0 1 0 25 5 1 1 0 1 0 25 3zM25 7A1 1 0 1 0 25 9 1 1 0 1 0 25 7zM25 11A1 1 0 1 0 25 13 1 1 0 1 0 25 11z" fill="#110000" />
</svg>